<svg class="aspect-square h-16" id="eE8OfYC4PFg1" xmlns="http://www.w3.org/2000/svg"
                            xmlns:xlink="http://www.w3.org/1999/xlink" viewBox="0 0 120 120"
                            shape-rendering="geometricPrecision" text-rendering="geometricPrecision">
                            <style>
                                <![CDATA[
                                #eE8OfYC4PFg5_tr {
                                    animation: eE8OfYC4PFg5_tr__tr 1500ms linear normal forwards
                                }

                                @keyframes eE8OfYC4PFg5_tr__tr {
                                    0% {
                                        transform: translate(60.1px, 44.387051px) rotate(0deg)
                                    }

                                    100% {
                                        transform: translate(60.1px, 44.387051px) rotate(-92.2047deg)
                                    }
                                }

                                #eE8OfYC4PFg5_ts {
                                    animation: eE8OfYC4PFg5_ts__ts 1500ms linear normal forwards
                                }

                                @keyframes eE8OfYC4PFg5_ts__ts {
                                    0% {
                                        transform: scale(0.993922, 0.993839)
                                    }

                                    100% {
                                        transform: scale(1.601673, 1.609897)
                                    }
                                }

                                #eE8OfYC4PFg7_ts {
                                    animation: eE8OfYC4PFg7_ts__ts 1500ms linear normal forwards
                                }

                                @keyframes eE8OfYC4PFg7_ts__ts {
                                    0% {
                                        transform: translate(23.4px, 28.5px) scale(1, 0.104283);
                                        animation-timing-function: cubic-bezier(0.25, 1, 0.25, 1)
                                    }

                                    100% {
                                        transform: translate(23.4px, 28.5px) scale(1, 1.000002)
                                    }
                                }

                                #eE8OfYC4PFg8_ts {
                                    animation: eE8OfYC4PFg8_ts__ts 1500ms linear normal forwards
                                }

                                @keyframes eE8OfYC4PFg8_ts__ts {
                                    0% {
                                        transform: translate(96.6px, 28.499989px) scale(1, 0.104283);
                                        animation-timing-function: cubic-bezier(0.25, 1, 0.25, 1)
                                    }

                                    100% {
                                        transform: translate(96.6px, 28.499989px) scale(1, 1)
                                    }
                                }
                                ]]>
                            </style>
                            <g transform="translate(.021511 0)">
                                <g>
                                    <path
                                        d="M83.8,60.8c6.9-1,12.4-3.7,16.3-8.2c7.8-9.1,6.4-21.8,6.4-22.4l-.2-1.7h-14.4c-.1-3.4-.4-6.8-1-10h-61.9c-.5,3.2-.8,6.6-1,10h-14.3l-.2,1.7c-.1.5-1.4,13.3,6.4,22.4c3.9,4.5,9.4,7.2,16.3,8.2c5,8.8,11.5,15.5,16.9,18.9v8.3h-16.5c-2.4,0-4.3,1.9-4.3,4.3v9.2h55.6v-9.2c0-2.4-1.9-4.3-4.3-4.3h-16.7v-8.2c5.4-3.5,11.9-10.2,16.9-19ZM97.1,50.1c-2.7,3.1-6.4,5.2-11,6.3c3.4-7.1,5.7-15.3,5.9-24h10.7c.1,3.6-.4,11.7-5.6,17.7Zm-74.2,0c-5.1-6-5.6-14.1-5.6-17.6h10.7c.2,8.7,2.5,16.9,5.9,24-4.6-1.2-8.3-3.3-11-6.4Z"
                                        fill="maroon" />
                                    <g id="eE8OfYC4PFg5_tr" transform="translate(60.1,44.387051) rotate(0)">
                                        <g id="eE8OfYC4PFg5_ts" transform="scale(0.993922,0.993839)">
                                            <path
                                                d="M56.2793,44.32049l2.23388-1.20976c.07703-.04172.11506-.08248.11216-.20195l.28908-2.55707c.03416-.20005.22819-.24461.38709-.12894l1.76141,1.8299c.07993.07775.11893.0768.19693.0749l2.48528-.49867c.19403-.04456.31586.1517.24173.31288L62.87204,44.24c-.03706.08059-.03513.16023.00484.1991l1.22511,2.24137c.08187.15739-.06929.36028-.22625.32425l-2.50656-.3774c-.078.00189-.156.00379-.19306.08438l-1.71045,1.8744c-.11409.12231-.34905.08817-.39289-.10999l-.4129-2.54001c-.00193-.07964-.0809-.11757-.12183-.19626l-2.28998-1.09986c-.156.00379-.1618-.23514.03126-.31952l-.00003.00003Z"
                                                transform="translate(-60.1,-44.387051)" fill="white" />
                                        </g>
                                    </g>
                                    <g>
                                        <g id="eE8OfYC4PFg7_ts" transform="translate(23.4,28.5) scale(1,0.104283)">
                                            <polygon points="19.1,83.9 23.4,78.6 27.7,83.9 27.7,28.5 19.1,28.5"
                                                transform="translate(-23.4,-28.500109)" fill="black" />
                                        </g>
                                        <g id="eE8OfYC4PFg8_ts" transform="translate(96.6,28.499989) scale(1,0.104283)">
                                            <polygon points="92.3,28.5 92.3,83.9 96.6,78.6 100.9,83.9 100.9,28.5"
                                                transform="translate(-96.6,-28.499989)" fill="black" />
                                        </g>
                                    </g>
                                </g>
                            </g>
                        </svg>