<svg width="25" height="25" viewBox="0 0 30 30" fill="none" xmlns="http://www.w3.org/2000/svg">
                        <g clip-path="url(#clip0_1_6)">
                            <path
                                d="M30 3.75C30 4.4043 29.9023 4.99023 29.707 5.50781C29.5117 6.02539 29.2383 6.55762 28.8867 7.10449L21.3281 18.457C21.709 19.0625 21.9971 19.707 22.1924 20.3906C22.3877 21.0742 22.4902 21.7773 22.5 22.5C22.5 23.5352 22.3047 24.5068 21.9141 25.415C21.5234 26.3232 20.9912 27.1191 20.3174 27.8027C19.6436 28.4863 18.8477 29.0234 17.9297 29.4141C17.0117 29.8047 16.0352 30 15 30C13.9648 30 12.9932 29.8047 12.085 29.4141C11.1768 29.0234 10.3809 28.4912 9.69727 27.8174C9.01367 27.1436 8.47656 26.3477 8.08594 25.4297C7.69531 24.5117 7.5 23.5352 7.5 22.5C7.5 21.7871 7.59766 21.0889 7.79297 20.4053C7.98828 19.7217 8.28125 19.0723 8.67188 18.457L1.11328 7.10449C0.761719 6.56738 0.488281 6.04004 0.292969 5.52246C0.0976563 5.00488 0 4.41406 0 3.75C0 3.23242 0.0976563 2.74902 0.292969 2.2998C0.488281 1.85059 0.756836 1.4502 1.09863 1.09863C1.44043 0.74707 1.83594 0.478516 2.28516 0.292969C2.73437 0.107422 3.22266 0.00976563 3.75 0H26.25C26.7676 0 27.251 0.0976563 27.7002 0.292969C28.1494 0.488281 28.5498 0.756836 28.9014 1.09863C29.2529 1.44043 29.5215 1.83594 29.707 2.28516C29.8926 2.73437 29.9902 3.22266 30 3.75ZM23.0859 1.875H6.91406L9.4043 5.625H20.5957L23.0859 1.875ZM10.6641 7.5L15 14.0186L19.3359 7.5H10.6641ZM1.875 3.75C1.875 4.19922 1.94336 4.59961 2.08008 4.95117C2.2168 5.30273 2.40723 5.66406 2.65137 6.03516L9.94629 16.9629C10.4443 16.5039 10.9912 16.123 11.5869 15.8203C12.1826 15.5176 12.8223 15.293 13.5059 15.1465L4.6582 1.875H3.75C3.48633 1.875 3.24219 1.92383 3.01758 2.02148C2.79297 2.11914 2.59766 2.25098 2.43164 2.41699C2.26563 2.58301 2.12891 2.7832 2.02148 3.01758C1.91406 3.25195 1.86523 3.49609 1.875 3.75ZM15 28.125C15.7715 28.125 16.499 27.9785 17.1826 27.6855C17.8662 27.3926 18.4619 26.9922 18.9697 26.4844C19.4775 25.9766 19.8828 25.3809 20.1855 24.6973C20.4883 24.0137 20.6348 23.2812 20.625 22.5C20.625 21.7285 20.4785 21.001 20.1855 20.3174C19.8926 19.6338 19.4922 19.0381 18.9844 18.5303C18.4766 18.0225 17.876 17.6172 17.1826 17.3145C16.4893 17.0117 15.7617 16.8652 15 16.875C14.2188 16.875 13.4912 17.0215 12.8174 17.3145C12.1436 17.6074 11.5479 18.0078 11.0303 18.5156C10.5127 19.0234 10.1074 19.624 9.81445 20.3174C9.52148 21.0107 9.375 21.7383 9.375 22.5C9.375 23.2812 9.52148 24.0088 9.81445 24.6826C10.1074 25.3564 10.5078 25.9521 11.0156 26.4697C11.5234 26.9873 12.1191 27.3926 12.8027 27.6855C13.4863 27.9785 14.2188 28.125 15 28.125ZM27.3633 6.00586C27.6074 5.67383 27.793 5.31738 27.9199 4.93652C28.0469 4.55566 28.1152 4.16016 28.125 3.75C28.125 3.48633 28.0762 3.24219 27.9785 3.01758C27.8809 2.79297 27.749 2.59766 27.583 2.43164C27.417 2.26563 27.2168 2.12891 26.9824 2.02148C26.748 1.91406 26.5039 1.86523 26.25 1.875H25.3418L16.4941 15.1465C17.168 15.2832 17.8027 15.5029 18.3984 15.8057C18.9941 16.1084 19.5459 16.4941 20.0537 16.9629L27.3633 6.02051V6.00586Z"
                                fill="rgb(220,38,38)"/>
                        </g>
                        <defs>
                            <clipPath id="clip0_1_6">
                                <rect width="30" height="30" fill="white" />
                            </clipPath>
                        </defs>
                    </svg>