<svg width="25" height="25" viewBox="0 0 31 30" fill="none" xmlns="http://www.w3.org/2000/svg"
            onclick="myFunction()">
            <path
                d="M29.8205 24.4824C29.068 22.7984 27.9759 21.2687 26.6051 19.9786C25.2385 18.6848 23.6196 17.6533 21.8379 16.941C21.8219 16.9334 21.806 16.9296 21.79 16.9221C24.2754 15.2261 25.891 12.4636 25.891 9.34673C25.891 4.18342 21.4629 0 15.9975 0C10.5321 0 6.10395 4.18342 6.10395 9.34673C6.10395 12.4636 7.71963 15.2261 10.205 16.9259C10.189 16.9334 10.1731 16.9372 10.1571 16.9447C8.36989 17.657 6.76618 18.6784 5.38986 19.9824C4.02035 21.2735 2.92845 22.8029 2.17445 24.4862C1.43372 26.1341 1.03423 27.9009 0.997597 29.691C0.996533 29.7312 1.004 29.7712 1.01956 29.8087C1.03512 29.8461 1.05846 29.8802 1.0882 29.909C1.11795 29.9378 1.15349 29.9607 1.19274 29.9763C1.23199 29.992 1.27415 30 1.31674 30H3.71035C3.88588 30 4.0255 29.8681 4.02949 29.706C4.10928 26.7965 5.34597 24.0716 7.53213 22.0063C9.79408 19.8693 12.7981 18.6935 15.9975 18.6935C19.1969 18.6935 22.2009 19.8693 24.4629 22.0063C26.649 24.0716 27.8857 26.7965 27.9655 29.706C27.9695 29.8719 28.1091 30 28.2846 30H30.6783C30.7208 30 30.763 29.992 30.8023 29.9763C30.8415 29.9607 30.877 29.9378 30.9068 29.909C30.9365 29.8802 30.9599 29.8461 30.9754 29.8087C30.991 29.7712 30.9985 29.7312 30.9974 29.691C30.9575 27.8894 30.5626 26.1369 29.8205 24.4824V24.4824ZM15.9975 15.8291C14.1664 15.8291 12.443 15.1545 11.1465 13.9296C9.84993 12.7048 9.13584 11.0766 9.13584 9.34673C9.13584 7.61683 9.84993 5.98869 11.1465 4.76382C12.443 3.53894 14.1664 2.86432 15.9975 2.86432C17.8286 2.86432 19.552 3.53894 20.8485 4.76382C22.1451 5.98869 22.8592 7.61683 22.8592 9.34673C22.8592 11.0766 22.1451 12.7048 20.8485 13.9296C19.552 15.1545 17.8286 15.8291 15.9975 15.8291Z"
                fill="rgb(220,38,38)" />
        </svg>		
            