<svg width="25" height="25" viewBox="0 0 30 30" fill="none" xmlns="http://www.w3.org/2000/svg">
                        <g clip-path="url(#clip0_1_4)">
                            <path
                                d="M18.6952 6.54422C18.7327 6.54422 18.7631 6.57375 18.7631 6.60984V10.3561C18.7631 11.0494 19.1456 11.6869 19.7592 12.0122C20.0298 12.1561 20.3316 12.2313 20.6381 12.2311C21.0061 12.2311 21.4308 12.1233 21.7467 11.9091L28.125 8.29875V21.6703L21.7116 18.1688C21.3967 17.9486 21.0218 17.8306 20.6377 17.8308C20.3362 17.8309 20.0391 17.9034 19.7714 18.0422C19.1527 18.3652 18.7636 19.0055 18.7627 19.703L18.758 23.3897C18.758 23.4263 18.7285 23.4558 18.691 23.4558H1.94206C1.90456 23.4558 1.875 23.4268 1.875 23.3906L1.87969 6.60984C1.87969 6.57328 1.90922 6.54422 1.94675 6.54422H18.6952H18.6952ZM29.0147 5.60578C28.815 5.60578 28.4202 5.66484 28.1953 5.88891L20.6376 10.3561V6.60984C20.6376 5.53875 19.768 4.66922 18.6946 4.66922H1.94619C0.871814 4.66922 0.00415772 5.53831 0.00415772 6.60987L-6.10352e-05 23.3897C-6.10352e-05 24.4608 0.868064 25.3308 1.94197 25.3308H18.6913C19.7653 25.3308 20.6334 24.4613 20.6334 23.3897L20.6381 19.7058L28.3425 24.1974C28.5684 24.4224 28.8187 24.3933 29.0189 24.3933C29.2265 24.3933 29.3812 24.33 29.4004 24.322C29.7647 24.1702 30 23.8186 30 23.423V6.57797C30 6.18234 29.7647 5.82941 29.4004 5.67984C29.3793 5.67047 29.2237 5.60578 29.0147 5.60578Z"
                                fill="rgb(220,38,38)" />
                        </g>
                        <defs>
                            <clipPath id="clip0_1_4">
                                <rect width="30" height="30" fill="white" />
                            </clipPath>
                        </defs>
</svg>